<svg width="31" height="39" viewBox="0 0 31 39" fill="none" xmlns="http://www.w3.org/2000/svg">
<path fill-rule="evenodd" clip-rule="evenodd" d="M19.6526 1.06901C14.0496 -0.432336 8.39854 3.31687 7.60377 9.06291L7.45402 10.1456C7.23489 11.7298 6.26469 13.1109 4.84868 13.8543C1.91444 15.3949 0.334995 18.675 0.960329 21.9296L1.03666 22.3268C1.61954 25.3604 3.88432 27.7943 6.86812 28.5938L20.4335 32.2287C23.0072 32.9183 25.7549 32.2453 27.7185 30.4443C30.4905 27.9019 31.0512 23.7427 29.0515 20.557L28.9971 20.4704C28.0817 19.0121 27.9235 17.2025 28.572 15.6074L28.9072 14.783C31.0942 9.40373 28.0717 3.32488 22.4627 1.82195L19.6526 1.06901ZM10.1421 9.414C10.7257 5.19477 14.8752 2.44178 18.9894 3.54419L21.7994 4.29713C25.9196 5.40114 28.1399 9.86646 26.5334 13.8179L26.1982 14.6423C25.2393 17.0008 25.4732 19.6765 26.8268 21.8328L26.8812 21.9194C28.2234 24.0576 27.847 26.8494 25.9865 28.5558C24.6685 29.7646 22.8242 30.2164 21.0967 29.7535L7.53135 26.1187C5.4958 25.5732 3.95077 23.9128 3.55313 21.8433L3.4768 21.446C3.0646 19.3008 4.10571 17.1386 6.03985 16.1232C8.18806 14.9953 9.65992 12.9001 9.99235 10.4967L10.1421 9.414Z" fill="#2D264B"/>
<path d="M8.94664 32.3343C8.68306 31.6776 7.93702 31.3589 7.28034 31.6225C6.62365 31.8861 6.30497 32.6321 6.56856 33.2888L6.88674 34.0815C8.63671 38.4413 14.0821 39.9004 17.7776 36.9997L18.4494 36.4723C19.0061 36.0353 19.1031 35.2299 18.6662 34.6733C18.2293 34.1167 17.4239 34.0197 16.8672 34.4566L16.1953 34.984C13.8437 36.8299 10.3784 35.9014 9.26482 33.127L8.94664 32.3343Z" fill="#2D264B"/>
</svg>
